# xmcd
#
# Track frame offsets:
#	150
#	9072
#	21611
#	36540
#	49215
#	60148
#	72830
#	85891
#	99601
#	111970
#	124493
#	135357
#	147794
#	158221
#
# Disc length: 2279 seconds
#
# Revision: 0
# Processed by: cddbd v1.4PL0 Copyright (c) Steve Scherf et al.
# Submitted via: dBpowerAMP V4.0
#
DISCID=bd08e50e
DTITLE=Ann Breen - Ireland's Showband Queens
DYEAR=2001
DGENRE=Country
TTITLE0=Ann Breen Hey Good Looking
TTITLE1=Ann Breen Have You Ever Been Lonely
TTITLE2=Ann Breen Save The last Dance for Me
TTITLE3=Ann Breen I don't think love ought to be that way
TTITLE4=Ann Breen This songs just for you
TTITLE5=Ann Breen Jambalaya
TTITLE6=Ann Breen The Tenessee Waltz
TTITLE7=Ann Breen Everybody's somebody's fool
TTITLE8=Ann Breen It keeps right on a hurtin
TTITLE9=Ann Breen Blue Kentucky Girl
TTITLE10=Ann Breen i'm Guilty
TTITLE11=Ann Breen The heart you break may be your own
TTITLE12=Ann Breen Souvenirs
TTITLE13=Ann Breen Blue are the violets
EXTD=
EXTT0=
EXTT1=
EXTT2=
EXTT3=
EXTT4=
EXTT5=
EXTT6=
EXTT7=
EXTT8=
EXTT9=
EXTT10=
EXTT11=
EXTT12=
EXTT13=
PLAYORDER=
